<svg width="294" height="71" viewBox="0 0 294 71" fill="none" xmlns="http://www.w3.org/2000/svg">
<path d="M6.2636 31.0048C6.62136 29.8873 7.27614 29.0227 8.22795 28.411C9.20508 27.8076 10.3784 27.4659 11.748 27.3857C13.1176 27.3056 14.5998 27.5296 16.1946 28.0578C17.3085 28.4266 18.4151 28.9055 19.5145 29.4943C20.6474 30.0661 21.6252 30.6849 22.4481 31.3506L23.1676 29.103C23.8262 27.0458 23.7598 25.198 22.9685 23.5596C22.2105 21.9041 20.857 20.7536 18.9077 20.108C17.9711 19.7979 16.8767 19.6742 15.6247 19.7371C14.406 19.7829 13.1138 20.0151 11.7479 20.4335L11.4874 19.6731C13.0295 19.2288 14.4393 18.9794 15.7167 18.9249C16.9941 18.8704 18.1391 19.0108 19.1517 19.3461C21.354 20.0755 22.8812 21.3397 23.7332 23.1387C24.6105 24.946 24.6751 27.018 23.9271 29.3545L20.4267 40.2878C20.3454 40.5418 20.3351 40.749 20.3957 40.9096C20.4816 41.0785 20.6132 41.1923 20.7904 41.2509L20.5465 42.0129C20.3946 41.9625 20.2806 41.9248 20.2047 41.8997C20.1369 41.8491 20.0817 41.8028 20.0392 41.7606C19.8186 41.5752 19.673 41.3303 19.6024 41.0261C19.54 40.6964 19.5616 40.3665 19.6673 40.0363L20.2527 38.2078C18.9674 39.0742 17.4849 39.5945 15.8052 39.7686C14.1256 39.9426 12.4251 39.7446 10.7037 39.1746C9.5139 38.7805 8.5234 38.1576 7.73219 37.3057C6.94098 36.4538 6.40062 35.4743 6.11109 34.3671C5.85501 33.243 5.90585 32.1222 6.2636 31.0048ZM19.8539 37.4858C20.1459 37.2735 20.3705 37.0529 20.5277 36.8241C20.7184 36.5783 20.8503 36.3411 20.9235 36.1125L22.1797 32.1887C21.2972 31.447 20.3275 30.8028 19.2706 30.2562C18.2471 29.6925 17.1405 29.2137 15.9507 28.8197C13.7483 28.0903 11.8214 27.9437 10.1698 28.3799C8.54355 28.8245 7.49463 29.7833 7.02304 31.2563C6.70594 32.2468 6.65778 33.228 6.87858 34.2C7.13281 35.1549 7.61304 36.0162 8.31925 36.7838C9.03359 37.526 9.90971 38.0689 10.9476 38.4126C12.6437 38.9743 14.2895 39.1683 15.8851 38.9944C17.506 38.829 18.8289 38.3261 19.8539 37.4858Z" fill="#E5E5E5"/>
<path d="M31.2561 45.1476L36.3893 25.0322L45.5553 27.4518C46.5093 27.7036 47.2717 28.1668 47.8426 28.8415C48.4135 29.5162 48.7934 30.2922 48.9823 31.1695C49.1779 32.0209 49.1701 32.86 48.9592 33.6868C48.6954 34.7204 48.1807 35.6049 47.4151 36.3405C46.6752 37.0829 45.8013 37.5417 44.7934 37.7169C45.868 38.3591 46.6184 39.2467 47.0448 40.3797C47.5036 41.4936 47.5847 42.632 47.288 43.7947C47.0506 44.7249 46.5848 45.5258 45.8905 46.1975C45.222 46.876 44.4383 47.3586 43.5395 47.6454C42.6473 47.9063 41.7243 47.9108 40.7703 47.659L31.2561 45.1476ZM32.2176 44.6154L40.9582 46.9226C41.7833 47.1404 42.587 47.1182 43.3695 46.8559C44.1519 46.5936 44.8256 46.1646 45.3903 45.5691C45.9551 44.9735 46.3331 44.3011 46.5243 43.5518C46.7221 42.7766 46.7134 42.0021 46.4981 41.2282C46.3151 40.4353 45.9541 39.747 45.415 39.1634C44.9083 38.5608 44.2553 38.154 43.456 37.9431L34.522 35.5848L32.2176 44.6154ZM34.71 34.8484L42.8318 36.9923C43.6568 37.2101 44.4348 37.181 45.1657 36.9051C45.9032 36.6033 46.5286 36.1479 47.0418 35.5387C47.5808 34.9364 47.9459 34.2605 48.1371 33.5112C48.4272 32.3743 48.3072 31.2808 47.7771 30.2308C47.2793 29.1617 46.4503 28.474 45.29 28.1677L36.9749 25.9728L34.71 34.8484Z" fill="#E5E5E5"/>
<path d="M62.1848 52.5572L66.0058 32.9256L58.1239 31.3388L58.2691 30.5928L74.7779 33.9165L74.6327 34.6625L66.79 33.0835L62.9691 52.7151L62.1848 52.5572Z" fill="#E5E5E5"/>
<path d="M88.8798 57.4836C87.5323 57.2997 86.3007 56.849 85.1849 56.1315C84.0692 55.4141 83.1267 54.5049 82.3575 53.4041C81.5917 52.2769 81.0415 51.0445 80.7069 49.707C80.3759 48.343 80.3045 46.9472 80.4929 45.5196C80.6848 44.0655 81.1154 42.7383 81.7849 41.5378C82.4842 40.3145 83.3476 39.275 84.375 38.4194C85.4059 37.5374 86.5525 36.9 87.8147 36.5071C89.077 36.1142 90.3686 36.0079 91.6897 36.1882C93.0108 36.3685 94.2292 36.8174 95.3449 37.5349C96.4606 38.2524 97.4014 39.1747 98.1672 40.302C98.9364 41.4028 99.4866 42.6351 99.8177 43.9991C100.179 45.3402 100.263 46.7378 100.071 48.1919C99.883 49.6195 99.4523 50.9468 98.7794 52.1737C98.1099 53.3742 97.2465 54.4136 96.1892 55.292C95.1618 56.1476 94.017 56.7718 92.7548 57.1647C91.5189 57.5612 90.2273 57.6675 88.8798 57.4836ZM81.2751 45.7071C81.0414 47.4784 81.2231 49.1584 81.8204 50.7471C82.4442 52.3394 83.3705 53.6769 84.5994 54.7597C85.8582 55.8197 87.3067 56.4615 88.9448 56.6851C90.5829 56.9087 92.1483 56.6648 93.6408 55.9535C95.1334 55.2421 96.3886 54.1889 97.4065 52.7937C98.4244 51.3986 99.0502 49.8154 99.2839 48.044C99.5177 46.2727 99.3227 44.5909 98.6989 42.9986C98.0787 41.3799 97.1409 40.0273 95.8856 38.9409C94.6567 37.8581 93.2232 37.2049 91.5851 36.9813C89.9733 36.7613 88.4195 37.0202 86.9234 37.758C85.4309 38.4694 84.1757 39.5226 83.1578 40.9178C82.1399 42.3129 81.5123 43.9093 81.2751 45.7071Z" fill="#E5E5E5"/>
<path d="M118.985 60.5173C117.149 60.397 115.531 59.7832 114.131 58.676C112.76 57.5438 111.666 56.2562 110.849 54.813L110.009 68.0664L109.211 68.0141L111.063 38.7927L111.861 38.845L111.583 43.2362C112.549 41.9099 113.791 40.8556 115.31 40.0733C116.856 39.2927 118.414 38.9539 119.984 39.0568C121.447 39.1527 122.758 39.546 123.917 40.2366C125.102 40.9289 126.101 41.8228 126.913 42.9183C127.754 43.9889 128.373 45.1787 128.771 46.4875C129.196 47.7981 129.366 49.1187 129.282 50.4494C129.162 52.3389 128.652 54.0692 127.751 55.6403C126.849 57.2114 125.648 58.4555 124.147 59.3726C122.648 60.2631 120.927 60.6447 118.985 60.5173ZM119.035 59.7189C120.392 59.8079 121.621 59.6078 122.721 59.1187C123.847 58.6314 124.826 57.9339 125.659 57.0264C126.491 56.1189 127.144 55.0928 127.617 53.948C128.117 52.8049 128.406 51.6212 128.484 50.397C128.566 49.093 128.405 47.8398 128 46.6374C127.624 45.4101 127.039 44.3029 126.247 43.3156C125.455 42.3283 124.516 41.5319 123.432 40.9264C122.377 40.296 121.21 39.9389 119.933 39.8552C119.135 39.8029 118.259 39.9192 117.306 40.2041C116.379 40.4908 115.484 40.9131 114.62 41.4711C113.758 42.0026 113.037 42.6367 112.456 43.3736C111.876 44.0839 111.534 44.8498 111.428 45.6713L110.955 53.1364C111.39 54.2873 112.005 55.343 112.799 56.3037C113.593 57.2644 114.518 58.0599 115.573 58.6903C116.657 59.2958 117.811 59.6387 119.035 59.7189Z" fill="#E5E5E5"/>
<path d="M140.02 61.0521L139.925 40.3323L140.725 40.3285L140.815 59.9283L155.724 40.2171L156.444 40.2137L156.54 60.9734L155.74 60.9772L155.651 41.6574L140.94 61.0477L140.02 61.0521Z" fill="#E5E5E5"/>
<path d="M174.166 60.326C172.489 60.4379 170.99 60.1905 169.668 59.5838C168.372 58.9488 167.377 58.0263 166.684 56.8165L167.382 56.4492C167.986 57.5313 168.867 58.3411 170.024 58.8786C171.207 59.4143 172.571 59.6307 174.114 59.5277C176.03 59.3998 177.543 58.8311 178.654 57.8215C179.791 56.8102 180.309 55.5195 180.208 53.9495C180.116 52.5391 179.577 51.4259 178.589 50.6098C177.626 49.7654 176.359 49.3823 174.787 49.4605L172.712 49.599L172.66 48.8007L174.975 48.6462C175.614 48.6035 176.2 48.364 176.733 47.9275C177.266 47.4911 177.67 46.9295 177.947 46.243C178.248 45.528 178.373 44.7713 178.321 43.973C178.235 42.6424 177.714 41.6081 176.758 40.8702C175.829 40.1304 174.526 39.8165 172.849 39.9284C171.546 40.0154 170.446 40.3694 169.551 40.9904C168.656 41.6114 168.003 42.4701 167.593 43.5666L166.854 43.2952C167.309 42.0621 168.048 41.0908 169.071 40.3811C170.092 39.6447 171.334 39.2277 172.798 39.1301C173.995 39.0502 175.047 39.1938 175.952 39.561C176.884 39.9264 177.628 40.478 178.183 41.216C178.739 41.954 179.051 42.8552 179.119 43.9197C179.188 44.9841 178.997 45.959 178.547 46.8443C178.121 47.7012 177.536 48.3683 176.792 48.8456C178.013 49.1383 179.001 49.7405 179.754 50.6523C180.506 51.5376 180.923 52.6188 181.006 53.8962C181.083 55.0937 180.845 56.1653 180.291 57.1109C179.736 58.0299 178.929 58.7786 177.871 59.3571C176.837 59.9071 175.602 60.2301 174.166 60.326Z" fill="#E5E5E5"/>
<path d="M189.964 52.9125C189.822 51.7477 190.056 50.6837 190.664 49.7204C191.299 48.7537 192.221 47.9392 193.43 47.2767C194.639 46.6142 196.077 46.1783 197.744 45.9689C198.908 45.8227 200.111 45.779 201.354 45.8379C202.62 45.867 203.765 46.0054 204.789 46.2531L204.505 43.9103C204.244 41.766 203.414 40.1234 202.013 38.9825C200.635 37.8117 198.927 37.3543 196.89 37.6102C195.911 37.7332 194.867 38.0928 193.757 38.689C192.671 39.2555 191.595 40.0221 190.531 40.989L189.977 40.4135C191.191 39.3473 192.366 38.5144 193.502 37.9148C194.638 37.3152 195.735 36.949 196.793 36.816C199.095 36.5269 201.008 37.0124 202.531 38.2724C204.08 39.5291 205.003 41.3751 205.298 43.8106L206.682 55.2069C206.714 55.4716 206.791 55.6635 206.913 55.7826C207.062 55.8983 207.228 55.9446 207.414 55.9213L207.51 56.7155C207.351 56.7354 207.232 56.7504 207.153 56.7603C207.07 56.7438 207.001 56.7257 206.945 56.7058C206.667 56.6332 206.433 56.4745 206.242 56.2297C206.048 55.9584 205.93 55.6507 205.888 55.3066L205.657 53.4006C204.852 54.7379 203.725 55.8471 202.273 56.7282C200.822 57.6092 199.197 58.1627 197.398 58.3887C196.155 58.5449 194.996 58.4082 193.923 57.9785C192.85 57.5489 191.952 56.8958 191.228 56.0192C190.527 55.1129 190.105 54.0773 189.964 52.9125ZM204.994 52.9194C205.171 52.6017 205.282 52.3054 205.33 52.0307C205.4 51.7262 205.421 51.4549 205.392 51.2166L204.895 47.1267C203.785 46.836 202.637 46.6712 201.451 46.6321C200.287 46.5632 199.084 46.6069 197.84 46.7631C195.538 47.0522 193.729 47.7498 192.413 48.8557C191.123 49.9584 190.571 51.2774 190.758 52.8128C190.883 53.8452 191.249 54.7534 191.854 55.5374C192.483 56.2916 193.278 56.8636 194.238 57.2536C195.196 57.6171 196.217 57.7308 197.302 57.5945C199.074 57.3719 200.648 56.8382 202.023 55.9936C203.424 55.1457 204.415 54.121 204.994 52.9194Z" fill="#E5E5E5"/>
<path d="M236.097 56.3876L235.245 51.7858L218.509 54.9899L214.731 34.5766L215.517 34.4262L219.157 54.0922L232.396 51.5574L228.756 31.8914L229.542 31.741L233.182 51.407L235.893 50.888L236.883 56.2372L236.097 56.3876Z" fill="#E5E5E5"/>
<path d="M246.25 49.2998L241.15 29.2173L241.923 29.014L246.748 48.011L256.421 25.1641L257.118 24.9812L262.228 45.1024L261.454 45.3057L256.698 26.5801L247.139 49.0661L246.25 49.2998Z" fill="#E5E5E5"/>
<path d="M273.013 41.9303L276.861 31.4198C275.343 31.84 273.966 31.6939 272.729 30.9812C271.491 30.2686 270.587 29.0238 270.016 27.2466C269.689 26.2311 269.632 25.2246 269.843 24.2269C270.08 23.2209 270.572 22.3125 271.32 21.5019C272.06 20.6659 273.062 20.0375 274.327 19.6168L280.514 17.5597L286.867 37.3239L286.108 37.5763L283.44 29.2746L277.784 31.155L273.962 41.6148L273.013 41.9303ZM277.134 30.5703L283.207 28.5511L279.988 18.5357L274.56 20.3404C272.94 20.8789 271.788 21.7818 271.103 23.0493C270.435 24.2829 270.326 25.5979 270.775 26.9942C271.224 28.3905 271.991 29.4702 273.076 30.2333C274.187 30.988 275.54 31.1003 277.134 30.5703Z" fill="#E5E5E5"/>
</svg>
