<svg width="1920" height="1080" viewBox="0 0 1920 1080" fill="none" xmlns="http://www.w3.org/2000/svg">
<rect width="1920" height="1080" fill="#4B5563"/>
<g filter="url(#filter0_ddd_118_2)">
<path d="M1395 540C1395 780.244 1200.24 975 960 975C719.756 975 525 780.244 525 540C525 299.756 719.756 105 960 105C1200.24 105 1395 299.756 1395 540ZM699 540C699 684.146 815.854 801 960 801C1104.15 801 1221 684.146 1221 540C1221 395.854 1104.15 279 960 279C815.854 279 699 395.854 699 540Z" fill="#374151"/>
</g>
<g filter="url(#filter1_d_118_2)">
<path d="M818.96 562V519.376L798.8 553.04H797.776L777.616 519.376V562H776.336V516.56H777.36L798.288 551.504L819.216 516.56H820.24V562H818.96ZM831.555 547.408V528.784H832.835V547.408C832.835 552.101 833.603 555.6 835.139 557.904C836.717 560.208 839.085 561.36 842.243 561.36C844.376 561.36 846.424 560.869 848.387 559.888C850.349 558.907 852.056 557.563 853.507 555.856C855 554.107 856.067 552.123 856.707 549.904V528.784H857.987V559.44C857.987 559.824 858.072 560.144 858.243 560.4C858.456 560.613 858.712 560.72 859.011 560.72V562C858.755 562 858.563 562 858.435 562C858.307 561.957 858.2 561.915 858.115 561.872C857.688 561.701 857.347 561.403 857.091 560.976C856.835 560.507 856.707 559.995 856.707 559.44V553.552C855.256 556.325 853.229 558.544 850.627 560.208C848.024 561.829 845.229 562.64 842.243 562.64C838.744 562.64 836.077 561.36 834.243 558.8C832.451 556.24 831.555 552.443 831.555 547.408ZM865.549 560.72L890.894 530.064H865.87V528.784H892.494V530.064L867.214 560.72H892.238V562H865.549V560.72ZM896.799 560.72L922.144 530.064H897.12V528.784H923.744V530.064L898.464 560.72H923.488V562H896.799V560.72ZM928.666 545.296V544.016H946.778V545.296H928.666ZM983.764 522.576C982.868 521.595 981.95 520.784 981.012 520.144C980.116 519.461 979.156 518.928 978.132 518.544C977.15 518.16 976.084 517.883 974.932 517.712C973.822 517.541 972.585 517.456 971.22 517.456C966.057 517.456 962.302 518.459 959.956 520.464C957.652 522.427 956.5 525.051 956.5 528.336C956.5 530.512 956.99 532.24 957.972 533.52C958.953 534.757 960.489 535.76 962.58 536.528C964.713 537.253 967.465 537.957 970.836 538.64C974.206 539.323 977.129 540.112 979.604 541.008C982.078 541.861 983.977 543.056 985.3 544.592C986.665 546.085 987.347 548.176 987.347 550.864C987.347 552.699 986.985 554.341 986.26 555.792C985.534 557.2 984.468 558.395 983.06 559.376C981.694 560.315 980.009 561.04 978.004 561.552C976.041 562.064 973.822 562.32 971.348 562.32C968.916 562.32 966.654 562.064 964.564 561.552C962.516 561.04 960.596 560.272 958.804 559.248C957.012 558.181 955.305 556.859 953.684 555.28L954.644 554.448C955.796 555.643 956.99 556.667 958.228 557.52C959.465 558.373 960.766 559.077 962.132 559.632C963.54 560.187 965.012 560.592 966.548 560.848C968.084 561.104 969.705 561.232 971.412 561.232C975.934 561.232 979.497 560.379 982.1 558.672C984.745 556.965 986.068 554.427 986.068 551.056C986.068 548.795 985.534 546.981 984.468 545.616C983.401 544.208 981.737 543.077 979.476 542.224C977.257 541.328 974.398 540.539 970.9 539.856C967.572 539.216 964.734 538.512 962.388 537.744C960.041 536.933 958.249 535.824 957.012 534.416C955.817 532.965 955.22 530.981 955.22 528.464C955.22 525.819 955.86 523.6 957.14 521.808C958.462 519.973 960.318 518.587 962.708 517.648C965.097 516.709 967.892 516.24 971.092 516.24C973.012 516.24 974.761 516.432 976.34 516.816C977.961 517.157 979.433 517.733 980.756 518.544C982.121 519.312 983.401 520.357 984.596 521.68L983.764 522.576ZM1008.63 562.64C1006.46 562.64 1004.39 562.192 1002.42 561.296C1000.5 560.357 998.797 559.099 997.304 557.52C995.853 555.899 994.701 554.043 993.848 551.952C993.037 549.819 992.632 547.557 992.632 545.168C992.632 542.053 993.336 539.216 994.744 536.656C996.152 534.096 998.029 532.069 1000.38 530.576C1002.76 529.04 1005.41 528.272 1008.31 528.272C1011.26 528.272 1013.92 529.04 1016.31 530.576C1018.74 532.112 1020.68 534.181 1022.14 536.784C1023.59 539.344 1024.31 542.224 1024.31 545.424C1024.31 545.552 1024.31 545.68 1024.31 545.808C1024.31 545.893 1024.31 546 1024.31 546.128H993.911C994.125 548.987 994.914 551.568 996.28 553.872C997.645 556.176 999.416 558.011 1001.59 559.376C1003.77 560.699 1006.14 561.36 1008.7 561.36C1011.26 561.36 1013.64 560.72 1015.86 559.44C1018.08 558.117 1019.66 556.432 1020.6 554.384L1021.82 554.704C1021.22 556.197 1020.24 557.563 1018.87 558.8C1017.55 559.995 1015.99 560.933 1014.2 561.616C1012.41 562.299 1010.55 562.64 1008.63 562.64ZM993.911 544.848H1022.97C1022.8 541.861 1022.05 539.237 1020.73 536.976C1019.4 534.672 1017.68 532.859 1015.54 531.536C1013.41 530.213 1011.02 529.552 1008.38 529.552C1005.77 529.552 1003.4 530.213 1001.27 531.536C999.138 532.859 997.41 534.672 996.088 536.976C994.808 539.28 994.082 541.904 993.911 544.848ZM1029.06 552.464C1029.06 550.587 1029.63 548.944 1030.79 547.536C1031.98 546.128 1033.6 545.019 1035.65 544.208C1037.7 543.397 1040.07 542.992 1042.75 542.992C1044.63 542.992 1046.55 543.163 1048.51 543.504C1050.52 543.803 1052.31 544.251 1053.89 544.848V541.072C1053.89 537.616 1052.89 534.843 1050.88 532.752C1048.92 530.619 1046.3 529.552 1043.01 529.552C1041.43 529.552 1039.7 529.915 1037.83 530.64C1035.99 531.323 1034.14 532.325 1032.26 533.648L1031.49 532.624C1033.62 531.173 1035.65 530.085 1037.57 529.36C1039.49 528.635 1041.3 528.272 1043.01 528.272C1046.72 528.272 1049.67 529.424 1051.84 531.728C1054.06 534.032 1055.17 537.147 1055.17 541.072V559.44C1055.17 559.867 1055.26 560.187 1055.43 560.4C1055.64 560.613 1055.9 560.72 1056.19 560.72V562C1055.94 562 1055.75 562 1055.62 562C1055.49 561.957 1055.38 561.915 1055.3 561.872C1054.87 561.701 1054.53 561.403 1054.27 560.976C1054.02 560.507 1053.89 559.995 1053.89 559.44V556.368C1052.35 558.331 1050.35 559.867 1047.87 560.976C1045.4 562.085 1042.71 562.64 1039.81 562.64C1037.81 562.64 1035.99 562.192 1034.37 561.296C1032.75 560.4 1031.45 559.184 1030.47 557.648C1029.53 556.069 1029.06 554.341 1029.06 552.464ZM1052.93 555.472C1053.27 555.003 1053.51 554.555 1053.63 554.128C1053.81 553.659 1053.89 553.232 1053.89 552.848V546.256C1052.18 545.573 1050.39 545.083 1048.51 544.784C1046.68 544.443 1044.76 544.272 1042.75 544.272C1039.04 544.272 1036.03 545.019 1033.73 546.512C1031.47 548.005 1030.34 549.989 1030.34 552.464C1030.34 554.128 1030.74 555.643 1031.55 557.008C1032.41 558.331 1033.56 559.397 1035.01 560.208C1036.46 560.976 1038.06 561.36 1039.81 561.36C1042.67 561.36 1045.27 560.827 1047.62 559.76C1050.01 558.693 1051.78 557.264 1052.93 555.472ZM1079.71 530.064C1076.59 530.192 1073.89 531.237 1071.58 533.2C1069.28 535.12 1067.68 537.723 1066.78 541.008V562H1065.5V528.784H1066.78V537.36C1067.93 535.013 1069.47 533.093 1071.39 531.6C1073.35 530.064 1075.42 529.168 1077.6 528.912C1078.02 528.869 1078.41 528.848 1078.75 528.848C1079.13 528.805 1079.45 528.784 1079.71 528.784V530.064ZM1098.13 562.64C1095.96 562.64 1093.89 562.192 1091.93 561.296C1090.01 560.357 1088.3 559.099 1086.81 557.52C1085.31 555.899 1084.14 554.043 1083.29 551.952C1082.47 549.861 1082.07 547.621 1082.07 545.232C1082.07 542.032 1082.77 539.152 1084.18 536.592C1085.59 534.032 1087.51 532.005 1089.94 530.512C1092.37 529.019 1095.08 528.272 1098.07 528.272C1100.84 528.272 1103.34 528.933 1105.56 530.256C1107.78 531.536 1109.44 533.349 1110.55 535.696L1109.27 536.144C1108.2 534.096 1106.65 532.496 1104.6 531.344C1102.55 530.149 1100.31 529.552 1097.88 529.552C1095.19 529.552 1092.74 530.256 1090.52 531.664C1088.34 533.029 1086.59 534.907 1085.27 537.296C1083.99 539.643 1083.35 542.288 1083.35 545.232C1083.35 548.133 1084.01 550.821 1085.33 553.296C1086.66 555.728 1088.43 557.691 1090.65 559.184C1092.86 560.635 1095.3 561.36 1097.94 561.36C1099.69 561.36 1101.4 561.04 1103.06 560.4C1104.73 559.717 1106.15 558.843 1107.35 557.776C1108.59 556.709 1109.38 555.579 1109.72 554.384L1111 554.768C1110.53 556.261 1109.63 557.605 1108.31 558.8C1106.99 559.995 1105.43 560.933 1103.64 561.616C1101.89 562.299 1100.05 562.64 1098.13 562.64ZM1144.73 562H1143.45V543.504C1143.45 538.896 1142.66 535.419 1141.08 533.072C1139.55 530.725 1137.26 529.552 1134.23 529.552C1132.19 529.552 1130.18 530.064 1128.22 531.088C1126.3 532.069 1124.63 533.435 1123.23 535.184C1121.82 536.891 1120.82 538.832 1120.22 541.008V562H1118.94V515.28H1120.22V537.36C1121.58 534.587 1123.53 532.389 1126.04 530.768C1128.6 529.104 1131.31 528.272 1134.17 528.272C1135.92 528.272 1137.43 528.592 1138.71 529.232C1140.04 529.872 1141.15 530.853 1142.04 532.176C1142.94 533.456 1143.6 535.035 1144.03 536.912C1144.5 538.789 1144.73 540.987 1144.73 543.504V562Z" fill="#E5E7EB"/>
</g>
<path d="M829.783 163.782C828.032 164.345 826.303 164.368 824.596 163.852C822.907 163.303 821.419 162.507 820.131 161.464L824.195 174.107L823.433 174.352L814.474 146.476L815.236 146.231L816.582 150.42C816.995 148.831 817.766 147.393 818.893 146.106C820.045 144.812 821.37 143.924 822.868 143.442C824.265 142.993 825.628 142.877 826.958 143.094C828.313 143.303 829.569 143.767 830.725 144.488C831.898 145.176 832.909 146.055 833.758 147.127C834.632 148.19 835.273 149.357 835.681 150.626C836.26 152.429 836.418 154.227 836.154 156.02C835.89 157.814 835.228 159.413 834.167 160.818C833.098 162.198 831.637 163.186 829.783 163.782ZM829.539 163.02C830.833 162.604 831.903 161.966 832.747 161.107C833.617 160.239 834.273 159.23 834.715 158.079C835.158 156.929 835.39 155.734 835.412 154.494C835.459 153.247 835.295 152.039 834.919 150.871C834.52 149.627 833.912 148.52 833.096 147.55C832.297 146.546 831.348 145.73 830.25 145.103C829.153 144.476 827.989 144.079 826.759 143.914C825.547 143.716 824.332 143.812 823.113 144.204C822.351 144.449 821.579 144.879 820.797 145.494C820.04 146.102 819.362 146.824 818.762 147.661C818.155 148.472 817.715 149.328 817.444 150.227C817.165 151.101 817.126 151.94 817.329 152.743L819.617 159.865C820.442 160.776 821.4 161.533 822.49 162.135C823.579 162.737 824.73 163.137 825.943 163.336C827.172 163.501 828.371 163.395 829.539 163.02Z" fill="#E5E7EB"/>
<path d="M857.505 155.907C856.185 156.234 854.862 156.273 853.537 156.024C852.231 155.742 851.006 155.235 849.863 154.501C848.74 153.735 847.762 152.782 846.931 151.642C846.119 150.469 845.534 149.158 845.175 147.708C844.708 145.819 844.709 143.992 845.179 142.227C845.649 140.463 846.484 138.951 847.683 137.693C848.902 136.402 850.392 135.539 852.152 135.104C853.939 134.662 855.672 134.728 857.352 135.301C859.058 135.868 860.546 136.832 861.817 138.194C863.081 139.529 863.954 141.167 864.434 143.109C864.453 143.187 864.472 143.264 864.492 143.342C864.504 143.394 864.521 143.458 864.54 143.536L846.096 148.099C846.654 149.801 847.52 151.249 848.695 152.442C849.869 153.635 851.218 154.482 852.744 154.984C854.262 155.46 855.798 155.505 857.351 155.121C858.905 154.737 860.258 153.99 861.412 152.881C862.56 151.745 863.265 150.486 863.527 149.102L864.313 149.114C864.174 150.11 863.784 151.085 863.141 152.041C862.518 152.964 861.714 153.767 860.729 154.45C859.744 155.134 858.67 155.619 857.505 155.907ZM845.904 147.322L863.532 142.961C862.98 141.175 862.134 139.695 860.992 138.521C859.843 137.322 858.523 136.481 857.03 135.999C855.537 135.517 853.988 135.474 852.383 135.871C850.804 136.262 849.467 137.018 848.371 138.141C847.275 139.264 846.499 140.623 846.042 142.22C845.612 143.809 845.565 145.51 845.904 147.322Z" fill="#E5E7EB"/>
<path d="M877.143 151.098L873.334 130.691L884.501 128.607L884.641 129.354L874.26 131.291L877.929 150.951L877.143 151.098Z" fill="#E5E7EB"/>
<path d="M897.536 147.512L894.922 126.957L895.716 126.856L898.188 146.3L910.591 124.925L911.305 124.834L913.924 145.428L913.13 145.529L910.693 126.363L898.448 147.396L897.536 147.512Z" fill="#E5E7EB"/>
<path d="M934.551 144.171C933.194 144.254 931.886 144.054 930.627 143.571C929.393 143.059 928.28 142.34 927.288 141.412C926.294 140.458 925.491 139.345 924.878 138.074C924.292 136.801 923.953 135.419 923.861 133.928C923.738 131.932 924.067 130.109 924.847 128.458C925.627 126.807 926.747 125.468 928.207 124.444C929.666 123.419 931.328 122.849 933.191 122.734C934.921 122.627 936.504 122.944 937.938 123.684C939.372 124.397 940.479 125.465 941.261 126.886L940.48 127.214C939.736 125.978 938.703 125.04 937.381 124.4C936.058 123.733 934.638 123.446 933.12 123.54C931.444 123.643 929.94 124.176 928.61 125.14C927.305 126.075 926.286 127.314 925.553 128.855C924.844 130.368 924.547 132.043 924.66 133.879C924.771 135.689 925.287 137.341 926.207 138.834C927.126 140.3 928.306 141.456 929.747 142.303C931.187 143.122 932.732 143.481 934.382 143.38C935.473 143.313 936.526 143.047 937.539 142.584C938.551 142.094 939.409 141.494 940.113 140.783C940.844 140.07 941.293 139.334 941.46 138.576L942.273 138.766C942.038 139.716 941.531 140.588 940.752 141.385C939.972 142.181 939.037 142.826 937.945 143.321C936.88 143.814 935.749 144.097 934.551 144.171Z" fill="#E5E7EB"/>
<path d="M958.21 143.023L958.163 123.023L950.123 123.042L950.122 122.282L966.962 122.243L966.963 123.003L958.963 123.022L959.01 143.022L958.21 143.023Z" fill="#E5E7EB"/>
<path d="M985.61 144.203C983.774 144.092 982.154 143.487 980.751 142.387C979.376 141.262 978.278 139.98 977.457 138.541L976.656 151.797L975.858 151.749L977.623 122.522L978.422 122.57L978.156 126.962C979.118 125.631 980.358 124.571 981.875 123.781C983.419 122.993 984.976 122.646 986.546 122.741C988.01 122.829 989.323 123.216 990.483 123.9C991.671 124.586 992.672 125.475 993.488 126.566C994.332 127.632 994.955 128.819 995.357 130.125C995.785 131.434 995.96 132.753 995.879 134.084C995.765 135.974 995.26 137.707 994.363 139.282C993.466 140.858 992.269 142.108 990.77 143.032C989.273 143.93 987.553 144.321 985.61 144.203ZM985.659 143.405C987.016 143.487 988.244 143.28 989.343 142.786C990.468 142.293 991.445 141.59 992.275 140.679C993.105 139.767 993.755 138.738 994.225 137.591C994.721 136.445 995.007 135.26 995.081 134.036C995.159 132.732 994.995 131.479 994.586 130.279C994.206 129.054 993.618 127.95 992.823 126.967C992.027 125.984 991.087 125.192 990.001 124.592C988.943 123.967 987.776 123.616 986.498 123.539C985.699 123.491 984.824 123.612 983.871 123.901C982.945 124.193 982.051 124.62 981.189 125.182C980.329 125.718 979.609 126.356 979.03 127.095C978.453 127.809 978.112 128.576 978.009 129.398L977.558 136.864C977.996 138.013 978.614 139.065 979.411 140.022C980.208 140.978 981.136 141.769 982.193 142.394C983.279 142.994 984.434 143.331 985.659 143.405Z" fill="#E5E7EB"/>
<path d="M1004.91 139.329C1005.06 138.165 1005.55 137.191 1006.37 136.408C1007.22 135.629 1008.31 135.067 1009.65 134.725C1010.98 134.382 1012.48 134.316 1014.15 134.526C1015.31 134.672 1016.49 134.928 1017.68 135.293C1018.9 135.635 1019.98 136.053 1020.91 136.546L1021.2 134.205C1021.47 132.062 1021.07 130.264 1019.99 128.811C1018.94 127.334 1017.39 126.468 1015.36 126.211C1014.38 126.088 1013.28 126.178 1012.06 126.481C1010.87 126.761 1009.64 127.238 1008.37 127.911L1007.97 127.216C1009.41 126.484 1010.75 125.967 1012 125.667C1013.24 125.368 1014.4 125.284 1015.46 125.418C1017.76 125.708 1019.49 126.652 1020.66 128.251C1021.86 129.853 1022.3 131.871 1022 134.305L1020.56 145.695C1020.53 145.959 1020.56 146.164 1020.65 146.31C1020.76 146.459 1020.91 146.545 1021.1 146.569L1021 147.362C1020.84 147.342 1020.72 147.327 1020.64 147.317C1020.56 147.281 1020.5 147.246 1020.45 147.213C1020.2 147.074 1020.01 146.862 1019.89 146.577C1019.76 146.266 1019.72 145.939 1019.77 145.595L1020.01 143.69C1018.9 144.787 1017.54 145.583 1015.92 146.077C1014.3 146.572 1012.59 146.706 1010.79 146.479C1009.54 146.323 1008.45 145.903 1007.52 145.221C1006.58 144.539 1005.87 143.683 1005.38 142.654C1004.92 141.602 1004.77 140.493 1004.91 139.329ZM1019.48 143.059C1019.73 142.795 1019.91 142.535 1020.02 142.281C1020.17 142.003 1020.25 141.745 1020.28 141.507L1020.8 137.419C1019.79 136.863 1018.72 136.419 1017.58 136.087C1016.47 135.732 1015.29 135.476 1014.05 135.319C1011.75 135.029 1009.82 135.257 1008.28 136.003C1006.76 136.753 1005.9 137.895 1005.71 139.429C1005.58 140.461 1005.71 141.432 1006.11 142.342C1006.53 143.229 1007.16 143.98 1008 144.596C1008.84 145.186 1009.8 145.549 1010.89 145.686C1012.66 145.909 1014.31 145.781 1015.85 145.303C1017.42 144.829 1018.63 144.081 1019.48 143.059Z" fill="#E5E7EB"/>
<path d="M1047.26 156.782L1048.13 152.185L1031.39 149L1035.27 128.606L1036.06 128.756L1032.32 148.403L1045.56 150.922L1049.3 131.275L1050.09 131.424L1046.35 151.072L1049.06 151.588L1048.04 156.932L1047.26 156.782Z" fill="#E5E7EB"/>
<path d="M1058.5 154.523L1063.71 134.468L1064.48 134.67L1059.55 153.64L1079.01 138.402L1079.71 138.583L1074.49 158.676L1073.71 158.475L1078.57 139.775L1059.39 154.754L1058.5 154.523Z" fill="#E5E7EB"/>
<path d="M1084.67 161.652L1093.93 155.471C1092.46 154.905 1091.44 153.966 1090.86 152.653C1090.28 151.34 1090.28 149.797 1090.86 148.023C1091.19 147.01 1091.74 146.164 1092.49 145.485C1093.27 144.815 1094.2 144.376 1095.28 144.169C1096.37 143.936 1097.54 144.027 1098.81 144.442L1105.01 146.473L1098.54 166.2L1097.78 165.951L1100.5 157.665L1094.83 155.808L1085.62 161.964L1084.67 161.652ZM1094.65 154.949L1100.73 156.943L1104.01 146.946L1098.57 145.164C1096.95 144.633 1095.49 144.674 1094.2 145.287C1092.94 145.884 1092.08 146.879 1091.62 148.273C1091.16 149.666 1091.15 150.995 1091.58 152.257C1092.03 153.528 1093.05 154.426 1094.65 154.949Z" fill="#E5E7EB"/>
<path d="M818.742 933.805C819.119 932.694 819.793 931.829 820.763 931.21C821.759 930.599 822.949 930.245 824.333 930.147C825.718 930.049 827.212 930.25 828.816 930.751C829.936 931.101 831.047 931.56 832.149 932.127C833.285 932.678 834.265 933.277 835.086 933.924L835.845 931.69C836.539 929.644 836.498 927.816 835.722 926.205C834.98 924.577 833.628 923.457 831.668 922.844C830.727 922.55 829.623 922.443 828.357 922.522C827.126 922.585 825.817 922.832 824.431 923.265L824.179 922.516C825.743 922.055 827.171 921.789 828.462 921.717C829.753 921.646 830.907 921.769 831.926 922.087C834.14 922.779 835.665 924.009 836.5 925.778C837.361 927.555 837.397 929.605 836.609 931.928L832.918 942.799C832.833 943.051 832.819 943.257 832.878 943.415C832.963 943.581 833.094 943.692 833.272 943.747L833.015 944.505C832.862 944.457 832.748 944.421 832.671 944.397C832.604 944.348 832.549 944.303 832.506 944.262C832.286 944.082 832.142 943.841 832.075 943.541C832.017 943.216 832.043 942.889 832.155 942.56L832.772 940.742C831.461 941.618 829.956 942.153 828.257 942.348C826.558 942.544 824.843 942.371 823.112 941.831C821.916 941.457 820.924 940.854 820.137 940.022C819.349 939.189 818.817 938.227 818.541 937.135C818.298 936.026 818.365 934.916 818.742 933.805ZM832.379 940.033C832.677 939.819 832.907 939.598 833.069 939.369C833.265 939.123 833.402 938.886 833.479 938.659L834.803 934.758C833.922 934.036 832.952 933.411 831.892 932.885C830.866 932.341 829.755 931.882 828.559 931.508C826.344 930.817 824.4 930.698 822.725 931.153C821.076 931.615 820.003 932.579 819.506 934.043C819.171 935.028 819.109 936 819.318 936.959C819.562 937.901 820.035 938.747 820.737 939.497C821.448 940.222 822.326 940.747 823.369 941.073C825.075 941.606 826.734 941.775 828.349 941.581C829.988 941.395 831.332 940.879 832.379 940.033Z" fill="#E5E5E5"/>
<path d="M843.739 947.538L849.161 927.498L858.36 929.789C859.318 930.027 860.08 930.478 860.646 931.141C861.212 931.804 861.585 932.57 861.764 933.439C861.95 934.282 861.932 935.115 861.709 935.939C861.431 936.969 860.901 937.853 860.121 938.593C859.367 939.34 858.481 939.806 857.464 939.992C858.538 940.617 859.282 941.489 859.697 942.609C860.145 943.71 860.213 944.839 859.899 945.997C859.648 946.924 859.169 947.725 858.462 948.401C857.78 949.083 856.985 949.572 856.076 949.868C855.175 950.138 854.245 950.153 853.288 949.915L843.739 947.538ZM844.714 946.998L853.486 949.181C854.314 949.388 855.124 949.356 855.915 949.086C856.706 948.815 857.39 948.381 857.966 947.783C858.542 947.184 858.931 946.512 859.133 945.766C859.342 944.993 859.343 944.224 859.136 943.458C858.962 942.673 858.607 941.994 858.072 941.421C857.569 940.829 856.916 940.433 856.114 940.233L847.148 938.001L844.714 946.998ZM847.346 937.267L855.498 939.297C856.326 939.503 857.109 939.464 857.849 939.181C858.595 938.873 859.231 938.413 859.755 937.802C860.306 937.197 860.682 936.521 860.884 935.775C861.19 934.642 861.083 933.558 860.562 932.521C860.075 931.466 859.249 930.793 858.084 930.503L849.739 928.425L847.346 937.267Z" fill="#E5E5E5"/>
<path d="M874.783 954.609L878.825 935.022L870.927 933.522L871.08 932.777L887.625 935.919L887.471 936.663L879.611 935.171L875.569 954.758L874.783 954.609Z" fill="#E5E5E5"/>
<path d="M901.594 959.341C900.245 959.167 899.015 958.726 897.902 958.019C896.79 957.311 895.852 956.41 895.089 955.318C894.331 954.198 893.789 952.972 893.463 951.64C893.142 950.281 893.081 948.889 893.28 947.463C893.484 946.01 893.925 944.682 894.605 943.48C895.315 942.254 896.188 941.21 897.224 940.348C898.264 939.461 899.417 938.816 900.685 938.415C901.953 938.013 903.248 937.898 904.57 938.068C905.893 938.238 907.11 938.677 908.223 939.385C909.336 940.093 910.271 941.006 911.03 942.126C911.793 943.219 912.335 944.444 912.656 945.803C913.008 947.139 913.082 948.533 912.879 949.986C912.679 951.412 912.238 952.74 911.554 953.969C910.874 955.172 910.001 956.216 908.935 957.1C907.899 957.961 906.747 958.593 905.48 958.994C904.238 959.399 902.943 959.514 901.594 959.341ZM894.063 947.644C893.815 949.414 893.985 951.089 894.571 952.67C895.184 954.254 896.102 955.582 897.326 956.654C898.579 957.702 900.026 958.332 901.665 958.543C903.305 958.755 904.876 958.5 906.377 957.779C907.878 957.058 909.143 955.998 910.174 954.598C911.204 953.198 911.843 951.613 912.091 949.844C912.338 948.074 912.156 946.398 911.543 944.813C910.933 943.202 910.004 941.859 908.754 940.784C907.531 939.713 906.099 939.071 904.46 938.86C902.846 938.653 901.287 938.922 899.783 939.67C898.282 940.391 897.016 941.451 895.985 942.851C894.955 944.25 894.314 945.848 894.063 947.644Z" fill="#E5E5E5"/>
<path d="M931.842 962.246C930.005 962.132 928.389 961.525 926.993 960.423C925.626 959.297 924.536 958.014 923.724 956.574L922.834 969.824L922.035 969.775L923.998 940.561L924.796 940.61L924.502 945C925.473 943.671 926.72 942.613 928.243 941.825C929.792 941.039 931.352 940.695 932.922 940.792C934.386 940.883 935.697 941.271 936.853 941.957C938.036 942.644 939.032 943.534 939.841 944.626C940.678 945.693 941.293 946.88 941.686 948.187C942.106 949.495 942.271 950.815 942.182 952.145C942.055 954.034 941.538 955.765 940.63 957.339C939.723 958.913 938.517 960.161 937.011 961.083C935.508 961.978 933.785 962.366 931.842 962.246ZM931.895 961.448C933.253 961.532 934.483 961.327 935.585 960.834C936.714 960.343 937.696 959.642 938.532 958.732C939.369 957.822 940.026 956.794 940.503 955.648C941.008 954.504 941.301 953.319 941.384 952.096C941.471 950.792 941.315 949.54 940.914 948.339C940.542 947.114 939.962 946.01 939.173 945.026C938.383 944.042 937.448 943.249 936.366 942.648C935.312 942.022 934.146 941.669 932.869 941.59C932.07 941.541 931.194 941.66 930.239 941.949C929.311 942.239 928.414 942.664 927.547 943.225C926.683 943.759 925.959 944.396 925.374 945.134C924.792 945.847 924.447 946.613 924.338 947.435L923.836 954.898C924.267 956.047 924.878 957.1 925.669 958.057C926.46 959.014 927.382 959.806 928.436 960.432C929.518 961.034 930.671 961.372 931.895 961.448Z" fill="#E5E5E5"/>
<path d="M953.031 962.741L952.93 942.021L953.73 942.018L953.825 961.618L968.729 941.91L969.449 941.907L969.551 962.667L968.751 962.671L968.656 943.351L953.951 962.737L953.031 962.741Z" fill="#E5E5E5"/>
<path d="M987.315 962.053C985.639 962.159 984.138 961.906 982.813 961.295C981.513 960.655 980.514 959.729 979.816 958.517L980.513 958.153C981.122 959.237 982.006 960.05 983.166 960.591C984.352 961.131 985.717 961.352 987.261 961.255C989.177 961.135 990.689 960.572 991.796 959.567C992.93 958.56 993.443 957.272 993.336 955.703C993.239 954.293 992.695 953.178 991.704 952.359C990.737 951.511 989.467 951.123 987.895 951.196L985.82 951.326L985.765 950.528L988.08 950.382C988.719 950.342 989.304 950.105 989.836 949.671C990.367 949.236 990.77 948.677 991.044 947.991C991.343 947.278 991.465 946.522 991.41 945.724C991.319 944.394 990.794 943.358 989.834 942.617C988.902 941.874 987.597 941.555 985.92 941.661C984.616 941.743 983.517 942.093 982.624 942.71C981.731 943.327 981.081 944.183 980.675 945.278L979.934 945.004C980.385 943.773 981.12 942.805 982.141 942.099C983.16 941.367 984.402 940.955 985.865 940.863C987.063 940.787 988.116 940.935 989.023 941.305C989.957 941.674 990.703 942.228 991.262 942.968C991.82 943.708 992.136 944.61 992.209 945.674C992.281 946.738 992.094 947.712 991.647 948.595C991.224 949.45 990.641 950.114 989.899 950.589C991.122 950.886 992.112 951.491 992.87 952.405C993.625 953.293 994.047 954.375 994.134 955.652C994.216 956.85 993.982 957.92 993.432 958.863C992.88 959.779 992.075 960.525 991.019 961.099C989.987 961.645 988.752 961.963 987.315 962.053Z" fill="#E5E5E5"/>
<path d="M1003.19 954.683C1003.04 953.52 1003.27 952.459 1003.87 951.502C1004.5 950.541 1005.42 949.734 1006.63 949.081C1007.83 948.428 1009.27 948.003 1010.94 947.805C1012.1 947.667 1013.31 947.632 1014.55 947.699C1015.82 947.737 1016.97 947.882 1018 948.137L1017.7 945.796C1017.42 943.654 1016.58 942.008 1015.17 940.86C1013.78 939.682 1012.06 939.213 1010.03 939.455C1009.05 939.571 1008 939.923 1006.89 940.51C1005.81 941.069 1004.74 941.827 1003.68 942.784L1003.12 942.206C1004.33 941.15 1005.5 940.327 1006.63 939.736C1007.77 939.145 1008.86 938.787 1009.92 938.661C1012.23 938.389 1014.15 938.886 1015.68 940.154C1017.24 941.419 1018.18 943.269 1018.49 945.702L1019.96 957.088C1019.99 957.352 1020.07 957.544 1020.19 957.664C1020.34 957.781 1020.51 957.828 1020.7 957.806L1020.8 958.6C1020.64 958.618 1020.52 958.632 1020.44 958.642C1020.36 958.625 1020.29 958.606 1020.23 958.586C1019.95 958.512 1019.72 958.352 1019.52 958.106C1019.33 957.834 1019.21 957.526 1019.16 957.182L1018.92 955.278C1018.12 956.607 1017 957.707 1015.55 958.576C1014.1 959.446 1012.48 959.988 1010.68 960.201C1009.44 960.348 1008.27 960.204 1007.2 959.768C1006.12 959.331 1005.21 958.673 1004.48 957.793C1003.77 956.884 1003.34 955.847 1003.19 954.683ZM1018.25 954.793C1018.43 954.477 1018.54 954.182 1018.58 953.908C1018.65 953.605 1018.67 953.334 1018.64 953.096L1018.11 949.009C1017 948.712 1015.85 948.539 1014.66 948.492C1013.49 948.416 1012.29 948.451 1011.04 948.598C1008.74 948.871 1006.93 949.555 1005.62 950.65C1004.33 951.742 1003.79 953.055 1003.99 954.589C1004.12 955.621 1004.49 956.53 1005.11 957.317C1005.74 958.074 1006.54 958.65 1007.51 959.046C1008.47 959.416 1009.49 959.536 1010.58 959.407C1012.35 959.197 1013.92 958.675 1015.3 957.842C1016.69 957.005 1017.68 955.988 1018.25 954.793Z" fill="#E5E5E5"/>
<path d="M1049.59 958.475L1048.69 953.882L1031.92 956.91L1027.92 936.539L1028.71 936.396L1032.56 956.022L1045.82 953.627L1041.97 934.001L1042.76 933.859L1046.61 953.485L1049.33 952.994L1050.38 958.332L1049.59 958.475Z" fill="#E5E5E5"/>
<path d="M1059.79 951.45L1054.4 931.443L1055.18 931.25L1060.27 950.176L1069.73 927.604L1070.43 927.431L1075.82 947.477L1075.05 947.67L1070.02 929.014L1060.68 951.229L1059.79 951.45Z" fill="#E5E5E5"/>
<path d="M1086.65 944.392L1090.39 934.041C1088.86 934.436 1087.47 934.273 1086.21 933.55C1084.95 932.828 1084.02 931.583 1083.42 929.816C1083.07 928.807 1083 927.81 1083.2 926.825C1083.43 925.832 1083.91 924.94 1084.65 924.148C1085.39 923.331 1086.39 922.723 1087.67 922.324L1093.89 920.373L1100.58 940.023L1099.82 940.262L1097.01 932.009L1091.32 933.792L1087.61 944.092L1086.65 944.392ZM1090.66 933.204L1096.76 931.289L1093.37 921.332L1087.91 923.043C1086.28 923.554 1085.13 924.432 1084.46 925.677C1083.8 926.889 1083.71 928.189 1084.18 929.577C1084.65 930.965 1085.44 932.044 1086.55 932.815C1087.68 933.577 1089.05 933.707 1090.66 933.204Z" fill="#E5E5E5"/>
<defs>
<filter id="filter0_ddd_118_2" x="517" y="101" width="886" height="886" filterUnits="userSpaceOnUse" color-interpolation-filters="sRGB">
<feFlood flood-opacity="0" result="BackgroundImageFix"/>
<feColorMatrix in="SourceAlpha" type="matrix" values="0 0 0 0 0 0 0 0 0 0 0 0 0 0 0 0 0 0 127 0" result="hardAlpha"/>
<feOffset/>
<feGaussianBlur stdDeviation="0.5"/>
<feColorMatrix type="matrix" values="0 0 0 0 0 0 0 0 0 0 0 0 0 0 0 0 0 0 0.04 0"/>
<feBlend mode="normal" in2="BackgroundImageFix" result="effect1_dropShadow_118_2"/>
<feColorMatrix in="SourceAlpha" type="matrix" values="0 0 0 0 0 0 0 0 0 0 0 0 0 0 0 0 0 0 127 0" result="hardAlpha"/>
<feOffset/>
<feGaussianBlur stdDeviation="1"/>
<feColorMatrix type="matrix" values="0 0 0 0 0.215686 0 0 0 0 0.254902 0 0 0 0 0.317647 0 0 0 0.12 0"/>
<feBlend mode="normal" in2="effect1_dropShadow_118_2" result="effect2_dropShadow_118_2"/>
<feColorMatrix in="SourceAlpha" type="matrix" values="0 0 0 0 0 0 0 0 0 0 0 0 0 0 0 0 0 0 127 0" result="hardAlpha"/>
<feOffset dy="4"/>
<feGaussianBlur stdDeviation="4"/>
<feColorMatrix type="matrix" values="0 0 0 0 0.215686 0 0 0 0 0.254902 0 0 0 0 0.317647 0 0 0 0.18 0"/>
<feBlend mode="normal" in2="effect2_dropShadow_118_2" result="effect3_dropShadow_118_2"/>
<feBlend mode="normal" in="SourceGraphic" in2="effect3_dropShadow_118_2" result="shape"/>
</filter>
<filter id="filter1_d_118_2" x="776.336" y="515.28" width="382.394" height="69.36" filterUnits="userSpaceOnUse" color-interpolation-filters="sRGB">
<feFlood flood-opacity="0" result="BackgroundImageFix"/>
<feColorMatrix in="SourceAlpha" type="matrix" values="0 0 0 0 0 0 0 0 0 0 0 0 0 0 0 0 0 0 127 0" result="hardAlpha"/>
<feOffset dx="10" dy="18"/>
<feGaussianBlur stdDeviation="2"/>
<feComposite in2="hardAlpha" operator="out"/>
<feColorMatrix type="matrix" values="0 0 0 0 0 0 0 0 0 0 0 0 0 0 0 0 0 0 0.25 0"/>
<feBlend mode="normal" in2="BackgroundImageFix" result="effect1_dropShadow_118_2"/>
<feBlend mode="normal" in="SourceGraphic" in2="effect1_dropShadow_118_2" result="shape"/>
</filter>
</defs>
</svg>
