<svg width="383" height="70" viewBox="0 0 383 70" fill="none" xmlns="http://www.w3.org/2000/svg">
<g filter="url(#filter0_d_118_4)">
<path d="M42.96 47V4.376L22.8 38.04H21.776L1.616 4.376V47H0.336V1.56H1.36L22.288 36.504L43.216 1.56H44.24V47H42.96ZM55.5545 32.408V13.784H56.8345V32.408C56.8345 37.1013 57.6025 40.6 59.1385 42.904C60.7172 45.208 63.0852 46.36 66.2425 46.36C68.3758 46.36 70.4238 45.8693 72.3865 44.888C74.3492 43.9067 76.0558 42.5627 77.5065 40.856C78.9998 39.1067 80.0665 37.1227 80.7065 34.904V13.784H81.9865V44.44C81.9865 44.824 82.0718 45.144 82.2425 45.4C82.4558 45.6133 82.7118 45.72 83.0105 45.72V47C82.7545 47 82.5625 47 82.4345 47C82.3065 46.9573 82.1998 46.9147 82.1145 46.872C81.6878 46.7013 81.3465 46.4027 81.0905 45.976C80.8345 45.5067 80.7065 44.9947 80.7065 44.44V38.552C79.2558 41.3253 77.2292 43.544 74.6265 45.208C72.0238 46.8293 69.2292 47.64 66.2425 47.64C62.7438 47.64 60.0772 46.36 58.2425 43.8C56.4505 41.24 55.5545 37.4427 55.5545 32.408ZM89.5495 45.72L114.894 15.064H89.8695V13.784H116.494V15.064L91.2135 45.72H116.238V47H89.5495V45.72ZM120.799 45.72L146.144 15.064H121.12V13.784H147.744V15.064L122.464 45.72H147.488V47H120.799V45.72ZM152.666 30.296V29.016H170.778V30.296H152.666ZM207.764 7.576C206.868 6.59466 205.95 5.784 205.012 5.144C204.116 4.46133 203.156 3.928 202.132 3.544C201.15 3.16 200.084 2.88266 198.932 2.712C197.822 2.54133 196.585 2.456 195.22 2.456C190.057 2.456 186.302 3.45866 183.956 5.464C181.652 7.42666 180.5 10.0507 180.5 13.336C180.5 15.512 180.99 17.24 181.972 18.52C182.953 19.7573 184.489 20.76 186.58 21.528C188.713 22.2533 191.465 22.9573 194.836 23.64C198.206 24.3227 201.129 25.112 203.604 26.008C206.078 26.8613 207.977 28.056 209.3 29.592C210.665 31.0853 211.347 33.176 211.347 35.864C211.347 37.6987 210.985 39.3413 210.26 40.792C209.534 42.2 208.468 43.3947 207.06 44.376C205.694 45.3147 204.009 46.04 202.004 46.552C200.041 47.064 197.822 47.32 195.348 47.32C192.916 47.32 190.654 47.064 188.564 46.552C186.516 46.04 184.596 45.272 182.804 44.248C181.012 43.1813 179.305 41.8587 177.684 40.28L178.644 39.448C179.796 40.6427 180.99 41.6667 182.228 42.52C183.465 43.3733 184.766 44.0773 186.132 44.632C187.54 45.1867 189.012 45.592 190.548 45.848C192.084 46.104 193.705 46.232 195.412 46.232C199.934 46.232 203.497 45.3787 206.1 43.672C208.745 41.9653 210.068 39.4267 210.068 36.056C210.068 33.7947 209.534 31.9813 208.468 30.616C207.401 29.208 205.737 28.0773 203.476 27.224C201.257 26.328 198.398 25.5387 194.9 24.856C191.572 24.216 188.734 23.512 186.388 22.744C184.041 21.9333 182.249 20.824 181.012 19.416C179.817 17.9653 179.22 15.9813 179.22 13.464C179.22 10.8187 179.86 8.6 181.14 6.808C182.462 4.97333 184.318 3.58667 186.708 2.648C189.097 1.70933 191.892 1.24 195.092 1.24C197.012 1.24 198.761 1.432 200.34 1.816C201.961 2.15733 203.433 2.73333 204.756 3.544C206.121 4.312 207.401 5.35733 208.596 6.68L207.764 7.576ZM232.632 47.64C230.456 47.64 228.386 47.192 226.424 46.296C224.504 45.3573 222.797 44.0987 221.304 42.52C219.853 40.8987 218.701 39.0427 217.848 36.952C217.037 34.8187 216.632 32.5573 216.632 30.168C216.632 27.0533 217.336 24.216 218.744 21.656C220.152 19.096 222.029 17.0693 224.376 15.576C226.765 14.04 229.41 13.272 232.312 13.272C235.256 13.272 237.922 14.04 240.312 15.576C242.744 17.112 244.685 19.1813 246.136 21.784C247.586 24.344 248.312 27.224 248.312 30.424C248.312 30.552 248.312 30.68 248.312 30.808C248.312 30.8933 248.312 31 248.312 31.128H217.911C218.125 33.9867 218.914 36.568 220.28 38.872C221.645 41.176 223.416 43.0107 225.592 44.376C227.768 45.6987 230.136 46.36 232.696 46.36C235.256 46.36 237.645 45.72 239.864 44.44C242.082 43.1173 243.661 41.432 244.6 39.384L245.816 39.704C245.218 41.1973 244.237 42.5627 242.872 43.8C241.549 44.9947 239.992 45.9333 238.2 46.616C236.408 47.2987 234.552 47.64 232.632 47.64ZM217.911 29.848H246.968C246.797 26.8613 246.05 24.2373 244.728 21.976C243.405 19.672 241.677 17.8587 239.544 16.536C237.41 15.2133 235.021 14.552 232.376 14.552C229.773 14.552 227.405 15.2133 225.272 16.536C223.138 17.8587 221.41 19.672 220.088 21.976C218.808 24.28 218.082 26.904 217.911 29.848ZM253.059 37.464C253.059 35.5867 253.635 33.944 254.786 32.536C255.981 31.128 257.603 30.0187 259.651 29.208C261.699 28.3973 264.067 27.992 266.755 27.992C268.632 27.992 270.552 28.1627 272.515 28.504C274.52 28.8027 276.312 29.2507 277.891 29.848V26.072C277.891 22.616 276.888 19.8427 274.883 17.752C272.92 15.6187 270.296 14.552 267.01 14.552C265.432 14.552 263.704 14.9147 261.827 15.64C259.992 16.3227 258.136 17.3253 256.259 18.648L255.491 17.624C257.624 16.1733 259.651 15.0853 261.571 14.36C263.491 13.6347 265.304 13.272 267.01 13.272C270.723 13.272 273.667 14.424 275.843 16.728C278.061 19.032 279.171 22.1467 279.171 26.072V44.44C279.171 44.8667 279.256 45.1867 279.427 45.4C279.64 45.6133 279.896 45.72 280.195 45.72V47C279.939 47 279.747 47 279.619 47C279.491 46.9573 279.384 46.9147 279.299 46.872C278.872 46.7013 278.531 46.4027 278.275 45.976C278.019 45.5067 277.891 44.9947 277.891 44.44V41.368C276.355 43.3307 274.349 44.8667 271.875 45.976C269.4 47.0853 266.712 47.64 263.811 47.64C261.805 47.64 259.992 47.192 258.371 46.296C256.749 45.4 255.448 44.184 254.467 42.648C253.528 41.0693 253.059 39.3413 253.059 37.464ZM276.931 40.472C277.272 40.0027 277.507 39.5547 277.635 39.128C277.805 38.6587 277.891 38.232 277.891 37.848V31.256C276.184 30.5733 274.392 30.0827 272.515 29.784C270.68 29.4427 268.76 29.272 266.755 29.272C263.043 29.272 260.035 30.0187 257.731 31.512C255.469 33.0053 254.339 34.9893 254.339 37.464C254.339 39.128 254.744 40.6427 255.555 42.008C256.408 43.3307 257.56 44.3973 259.01 45.208C260.461 45.976 262.061 46.36 263.811 46.36C266.669 46.36 269.272 45.8267 271.619 44.76C274.008 43.6933 275.779 42.264 276.931 40.472ZM303.709 15.064C300.594 15.192 297.885 16.2373 295.581 18.2C293.277 20.12 291.677 22.7227 290.781 26.008V47H289.501V13.784H290.781V22.36C291.933 20.0133 293.469 18.0933 295.389 16.6C297.352 15.064 299.421 14.168 301.597 13.912C302.024 13.8693 302.408 13.848 302.749 13.848C303.133 13.8053 303.453 13.784 303.709 13.784V15.064ZM322.133 47.64C319.957 47.64 317.888 47.192 315.925 46.296C314.005 45.3573 312.298 44.0987 310.805 42.52C309.312 40.8987 308.138 39.0427 307.285 36.952C306.474 34.8613 306.069 32.6213 306.069 30.232C306.069 27.032 306.773 24.152 308.181 21.592C309.589 19.032 311.509 17.0053 313.941 15.512C316.373 14.0187 319.082 13.272 322.069 13.272C324.842 13.272 327.338 13.9333 329.557 15.256C331.776 16.536 333.44 18.3493 334.549 20.696L333.269 21.144C332.202 19.096 330.645 17.496 328.597 16.344C326.549 15.1493 324.309 14.552 321.877 14.552C319.189 14.552 316.736 15.256 314.517 16.664C312.341 18.0293 310.592 19.9067 309.269 22.296C307.989 24.6427 307.349 27.288 307.349 30.232C307.349 33.1333 308.01 35.8213 309.333 38.296C310.656 40.728 312.426 42.6907 314.645 44.184C316.864 45.6347 319.296 46.36 321.941 46.36C323.69 46.36 325.397 46.04 327.061 45.4C328.725 44.7173 330.154 43.8427 331.349 42.776C332.586 41.7093 333.376 40.5787 333.717 39.384L334.997 39.768C334.528 41.2613 333.632 42.6053 332.309 43.8C330.986 44.9947 329.429 45.9333 327.637 46.616C325.888 47.2987 324.053 47.64 322.133 47.64ZM368.731 47H367.451V28.504C367.451 23.896 366.661 20.4187 365.083 18.072C363.547 15.7253 361.264 14.552 358.235 14.552C356.187 14.552 354.181 15.064 352.219 16.088C350.299 17.0693 348.635 18.4347 347.227 20.184C345.819 21.8907 344.816 23.832 344.219 26.008V47H342.939V0.279999H344.219V22.36C345.584 19.5867 347.525 17.3893 350.043 15.768C352.603 14.104 355.312 13.272 358.171 13.272C359.92 13.272 361.435 13.592 362.715 14.232C364.037 14.872 365.147 15.8533 366.043 17.176C366.939 18.456 367.6 20.0347 368.027 21.912C368.496 23.7893 368.731 25.9867 368.731 28.504V47Z" fill="#E5E7EB"/>
</g>
<defs>
<filter id="filter0_d_118_4" x="0.33606" y="0.280029" width="382.394" height="69.36" filterUnits="userSpaceOnUse" color-interpolation-filters="sRGB">
<feFlood flood-opacity="0" result="BackgroundImageFix"/>
<feColorMatrix in="SourceAlpha" type="matrix" values="0 0 0 0 0 0 0 0 0 0 0 0 0 0 0 0 0 0 127 0" result="hardAlpha"/>
<feOffset dx="10" dy="18"/>
<feGaussianBlur stdDeviation="2"/>
<feComposite in2="hardAlpha" operator="out"/>
<feColorMatrix type="matrix" values="0 0 0 0 0 0 0 0 0 0 0 0 0 0 0 0 0 0 0.25 0"/>
<feBlend mode="normal" in2="BackgroundImageFix" result="effect1_dropShadow_118_4"/>
<feBlend mode="normal" in="SourceGraphic" in2="effect1_dropShadow_118_4" result="shape"/>
</filter>
</defs>
</svg>
