<svg width="308" height="71" viewBox="0 0 308 71" fill="none" xmlns="http://www.w3.org/2000/svg">
<path d="M23.7835 58.7818C22.0317 59.3448 20.3027 59.3683 18.5963 58.8524C16.9071 58.3029 15.4188 57.5067 14.1313 56.464L18.1948 69.1071L17.4332 69.3519L8.47399 41.4762L9.23562 41.2314L10.5819 45.4204C10.9954 43.831 11.7657 42.393 12.8928 41.1064C14.0452 39.8117 15.3704 38.9236 16.8682 38.4422C18.2646 37.9934 19.6278 37.8774 20.9579 38.0941C22.3134 38.3027 23.5692 38.7674 24.7252 39.4883C25.8984 40.1756 26.9094 41.0551 27.758 42.1268C28.632 43.1904 29.273 44.3569 29.681 45.6263C30.2603 47.4288 30.418 49.2268 30.1541 51.0202C29.8902 52.8136 29.2279 54.413 28.167 55.8184C27.0979 57.1983 25.6368 58.1861 23.7835 58.7818ZM23.5387 58.0202C24.8335 57.604 25.9029 56.9662 26.7471 56.1067C27.6166 55.239 28.2727 54.2299 28.7152 53.0793C29.1577 51.9287 29.3898 50.7337 29.4116 49.4942C29.4588 48.2466 29.2947 47.0389 28.9194 45.8711C28.5195 44.6271 27.9116 43.52 27.0956 42.5498C26.2969 41.5461 25.3485 40.7305 24.2505 40.103C23.1525 39.4755 21.9888 39.0793 20.7593 38.9142C19.5471 38.7156 18.3316 38.8122 17.113 39.2038C16.3514 39.4486 15.5793 39.8788 14.7968 40.4944C14.0397 41.1019 13.3615 41.8241 12.7622 42.6609C12.1547 43.4724 11.7153 44.3278 11.4442 45.2273C11.1649 46.1013 11.1264 46.94 11.3285 47.7434L13.6173 54.8646C14.4424 55.7758 15.3998 56.5325 16.4896 57.1346C17.5795 57.7367 18.7305 58.137 19.9427 58.3356C21.1722 58.5006 22.3709 58.3955 23.5387 58.0202Z" fill="#E5E7EB"/>
<path d="M51.5047 50.9074C50.1845 51.234 48.8618 51.2728 47.5365 51.0238C46.2308 50.7424 45.0064 50.2349 43.8635 49.5013C42.74 48.7353 41.7625 47.7822 40.931 46.6418C40.1189 45.4692 39.5336 44.158 39.175 42.7084C38.7075 40.8187 38.7088 38.9916 39.1788 37.2271C39.6489 35.4626 40.4837 33.9512 41.6833 32.693C42.9024 31.4025 44.3921 30.5395 46.1524 30.104C47.9385 29.6622 49.6717 29.7279 51.3519 30.3012C53.0579 30.8681 54.5463 31.8322 55.8171 33.1935C57.0815 34.529 57.9538 36.1675 58.4341 38.1089C58.4533 38.1866 58.4725 38.2642 58.4917 38.3419C58.5045 38.3937 58.5205 38.4584 58.5397 38.5361L40.0957 43.0987C40.6542 44.8011 41.5205 46.2487 42.6947 47.4417C43.8688 48.6346 45.2185 49.482 46.7436 49.9838C48.2623 50.4596 49.7983 50.5055 51.3514 50.1213C52.9046 49.737 54.2582 48.9901 55.4122 47.8805C56.5598 46.7451 57.2646 45.4856 57.5267 44.1022L58.3125 44.1138C58.1742 45.1095 57.7838 46.0852 57.1411 47.0408C56.5179 47.9641 55.714 48.7673 54.7292 49.4505C53.7444 50.1336 52.6696 50.6193 51.5047 50.9074ZM39.9036 42.3221L57.5322 37.9612C56.9804 36.1748 56.1335 34.6948 54.9917 33.5213C53.8434 32.322 52.5228 31.4812 51.03 30.9989C49.5372 30.5166 47.9883 30.474 46.3833 30.871C44.8042 31.2616 43.4668 32.0183 42.371 33.1409C41.2752 34.2636 40.499 35.6231 40.0423 37.2195C39.6115 38.8095 39.5653 40.5104 39.9036 42.3221Z" fill="#E5E7EB"/>
<path d="M71.1426 46.0982L67.3342 25.6905L78.5014 23.6066L78.6408 24.3537L68.26 26.2909L71.929 45.9515L71.1426 46.0982Z" fill="#E5E7EB"/>
<path d="M91.5355 42.5118L88.9219 21.9573L89.7155 21.8564L92.1879 41.2998L104.591 19.9246L105.305 19.8338L107.924 40.4279L107.13 40.5289L104.693 21.3632L92.4482 42.3957L91.5355 42.5118Z" fill="#E5E7EB"/>
<path d="M128.551 39.1709C127.194 39.2545 125.886 39.0545 124.627 38.5709C123.393 38.0591 122.28 37.3395 121.288 36.4121C120.294 35.458 119.491 34.3453 118.878 33.0739C118.292 31.8008 117.953 30.419 117.861 28.9285C117.738 26.9323 118.067 25.1086 118.847 23.4576C119.627 21.8065 120.747 20.4685 122.207 19.4435C123.666 18.4185 125.328 17.8487 127.191 17.7339C128.921 17.6274 130.504 17.9441 131.938 18.684C133.372 19.3972 134.479 20.4645 135.261 21.8858L134.48 22.2144C133.736 20.9778 132.703 20.0395 131.381 19.3996C130.058 18.733 128.638 18.4464 127.12 18.5398C125.444 18.6431 123.94 19.1765 122.61 20.14C121.305 21.0753 120.286 22.3136 119.553 23.855C118.844 25.368 118.547 27.0428 118.66 28.8793C118.771 30.6892 119.287 32.3407 120.207 33.8336C121.126 35.2999 122.306 36.4563 123.747 37.3026C125.187 38.1223 126.732 38.4814 128.382 38.3798C129.473 38.3126 130.526 38.0474 131.539 37.5842C132.551 37.0945 133.409 36.4939 134.113 35.7826C134.844 35.0697 135.293 34.334 135.46 33.5757L136.273 33.7661C136.038 34.7156 135.531 35.5885 134.752 36.3845C133.972 37.1806 133.037 37.826 131.945 38.3207C130.88 38.8137 129.749 39.0971 128.551 39.1709Z" fill="#E5E7EB"/>
<path d="M152.21 38.0234L152.163 18.0234L144.123 18.0421L144.122 17.2821L160.962 17.243L160.963 18.003L152.963 18.0216L153.01 38.0215L152.21 38.0234Z" fill="#E5E7EB"/>
<path d="M179.61 39.2033C177.774 39.0923 176.154 38.4869 174.751 37.387C173.376 36.262 172.278 34.9801 171.457 33.5413L170.656 46.7972L169.858 46.7489L171.623 17.5222L172.422 17.5704L172.156 21.9624C173.118 20.6314 174.358 19.5708 175.875 18.7809C177.419 17.9925 178.976 17.6458 180.546 17.7407C182.01 17.8291 183.323 18.2156 184.483 18.9002C185.671 19.5864 186.672 20.4751 187.488 21.5662C188.332 22.6324 188.955 23.8188 189.357 25.1254C189.785 26.4336 189.96 27.7532 189.879 29.0841C189.765 30.974 189.26 32.7067 188.363 34.2821C187.466 35.8576 186.269 37.1077 184.77 38.0323C183.273 38.9303 181.553 39.3207 179.61 39.2033ZM179.659 38.4047C181.016 38.4868 182.244 38.2804 183.343 37.7858C184.468 37.2927 185.445 36.5904 186.275 35.6788C187.105 34.7671 187.755 33.7378 188.225 32.5907C188.721 31.4452 189.007 30.2603 189.081 29.0359C189.159 27.7316 188.995 26.4794 188.586 25.2792C188.206 24.0541 187.618 22.9499 186.823 21.9668C186.027 20.9837 185.087 20.1923 184.001 19.5924C182.943 18.9674 181.776 18.6164 180.498 18.5392C179.699 18.491 178.824 18.6117 177.871 18.9015C176.945 19.1928 176.051 19.6197 175.189 20.1821C174.329 20.7178 173.609 21.3556 173.03 22.0954C172.453 22.8085 172.112 23.576 172.009 24.398L171.558 31.8644C171.996 33.0129 172.614 34.0654 173.411 35.0219C174.208 35.9783 175.136 36.769 176.193 37.3939C177.279 37.9938 178.434 38.3308 179.659 38.4047Z" fill="#E5E7EB"/>
<path d="M198.914 34.3292C199.061 33.1651 199.546 32.1914 200.371 31.4083C201.222 30.6286 202.314 30.0673 203.647 29.7246C204.98 29.3819 206.48 29.3155 208.147 29.5255C209.311 29.6722 210.489 29.928 211.679 30.293C212.899 30.6348 213.975 31.0526 214.908 31.5463L215.203 29.2048C215.473 27.0618 215.067 25.2637 213.987 23.8106C212.937 22.3344 211.393 21.468 209.356 21.2114C208.377 21.0881 207.277 21.178 206.056 21.4811C204.865 21.7611 203.636 22.2379 202.369 22.9114L201.972 22.2164C203.408 21.4835 204.75 20.9672 205.997 20.6674C207.245 20.3676 208.397 20.2843 209.456 20.4177C211.758 20.7076 213.493 21.652 214.663 23.2507C215.858 24.8527 216.303 26.8707 215.996 29.3048L214.561 40.6948C214.528 40.9594 214.556 41.1645 214.645 41.3101C214.761 41.4591 214.911 41.5452 215.096 41.5685L214.996 42.3623C214.838 42.3423 214.719 42.3273 214.639 42.3173C214.563 42.2808 214.5 42.246 214.451 42.2129C214.2 42.0737 214.011 41.8619 213.886 41.5773C213.764 41.2663 213.724 40.9388 213.768 40.5948L214.008 38.6899C212.902 39.7869 211.538 40.5828 209.917 41.0773C208.296 41.5719 206.586 41.7059 204.787 41.4792C203.543 41.3226 202.454 40.9031 201.518 40.2209C200.583 39.5386 199.871 38.6829 199.382 37.6538C198.924 36.6015 198.768 35.4933 198.914 34.3292ZM213.482 38.0593C213.731 37.7949 213.911 37.5354 214.024 37.2809C214.166 37.0032 214.253 36.7452 214.283 36.5071L214.798 32.4194C213.793 31.8628 212.72 31.4185 211.579 31.0867C210.468 30.7317 209.291 30.4759 208.047 30.3192C205.745 30.0293 203.822 30.2573 202.276 31.0033C200.757 31.7527 199.901 32.8946 199.708 34.4292C199.578 35.461 199.711 36.4319 200.107 37.3419C200.533 38.2287 201.164 38.9802 202 39.5962C202.84 40.1858 203.802 40.5489 204.887 40.6855C206.659 40.9088 208.315 40.7814 209.853 40.3033C211.418 39.8285 212.628 39.0805 213.482 38.0593Z" fill="#E5E7EB"/>
<path d="M241.257 51.7822L242.132 47.1846L225.392 44.0004L229.272 23.6061L230.057 23.7556L226.32 43.4033L239.563 45.9223L243.3 26.2746L244.086 26.4241L240.349 46.0718L243.06 46.5875L242.043 51.9317L241.257 51.7822Z" fill="#E5E7EB"/>
<path d="M252.499 49.523L257.707 29.4684L258.482 29.6695L253.555 48.6401L273.01 33.4016L273.707 33.5826L268.488 53.676L267.714 53.4748L272.571 34.7753L253.389 49.7543L252.499 49.523Z" fill="#E5E7EB"/>
<path d="M278.666 56.6522L287.932 50.4712C286.462 49.9051 285.437 48.9657 284.857 47.6531C284.277 46.3404 284.278 44.7972 284.859 43.0234C285.192 42.0098 285.736 41.1638 286.491 40.4854C287.272 39.8154 288.202 39.3764 289.28 39.1687C290.367 38.9356 291.544 39.0267 292.811 39.442L299.006 41.473L292.539 61.2001L291.779 60.9509L294.496 52.6648L288.832 50.8082L279.616 56.9637L278.666 56.6522ZM288.651 49.949L294.732 51.9426L298.009 41.946L292.574 40.1642C290.952 39.6326 289.493 39.6736 288.198 40.2872C286.936 40.8838 286.076 41.8789 285.62 43.2726C285.163 44.6663 285.148 45.9946 285.576 47.2574C286.029 48.5285 287.054 49.4257 288.651 49.949Z" fill="#E5E7EB"/>
</svg>
